# xmcd
#
# Track frame offsets: 
#        150
#        16920
#        39312
#        56550
#        75460
#        94227
#        111997
#        131825
#        149872
#        166120
#
# Disc length: 2528 seconds
#
# Revision: 2
# Processed by: cddbd v1.5.2PL0 Copyright (c) Steve Scherf et al.
# Submitted via: ExactAudioCopy v0.99pb4
#
DISCID=8409de0a
DTITLE=Pinback - Summer in Abaddon
DYEAR=2004
DGENRE=Indie
TTITLE0=Non Photo-Blue
TTITLE1=Sender
TTITLE2=Syracuse
TTITLE3=Bloods on Fire
TTITLE4=Fortress
TTITLE5=This Red Book
TTITLE6=Soaked
TTITLE7=3x0
TTITLE8=The Yellow Ones
TTITLE9=AFK
EXTD=
EXTT0=
EXTT1=
EXTT2=
EXTT3=
EXTT4=
EXTT5=
EXTT6=
EXTT7=
EXTT8=
EXTT9=
PLAYORDER=
